<svg xmlns="http://www.w3.org/2000/svg" style="background:transparent" width="100" height="100" preserveAspectRatio="xMidYMid"  xmlns:v="https://vecta.io/nano"><defs><clipPath id="A"><rect width="100" height="50"><animate attributeName="y" repeatCount="indefinite" dur="2.2222222222222223s" calcMode="spline" values="0;50;0;0;0" keyTimes="0;0.4;0.5;0.9;1" keySplines="0.3 0 1 0.7;0.3 0 1 0.7;0.3 0 1 0.7;0.3 0 1 0.7"/><animate attributeName="height" repeatCount="indefinite" dur="2.2222222222222223s" calcMode="spline" values="50;0;0;50;50" keyTimes="0;0.4;0.5;0.9;1" keySplines="0.3 0 1 0.7;0.3 0 1 0.7;0.3 0 1 0.7;0.3 0 1 0.7"/></rect><rect y="50" width="100" height="50"><animate attributeName="y" repeatCount="indefinite" dur="2.2222222222222223s" calcMode="spline" values="100;50;50;50;50" keyTimes="0;0.4;0.5;0.9;1" keySplines="0.3 0 1 0.7;0.3 0 1 0.7;0.3 0 1 0.7;0.3 0 1 0.7"/><animate attributeName="height" repeatCount="indefinite" dur="2.2222222222222223s" calcMode="spline" values="0;50;50;0;0" keyTimes="0;0.4;0.5;0.9;1" keySplines="0.3 0 1 0.7;0.3 0 1 0.7;0.3 0 1 0.7;0.3 0 1 0.7"/></rect></clipPath></defs><g transform="translate(50 50)"><g transform="scale(.9)"><g transform="translate(-50 -50)"><g><animateTransform attributeName="transform" type="rotate" dur="2.2222222222222223s" repeatCount="indefinite" values="0 50 50;0 50 50;180 50 50;180 50 50;360 50 50" keyTimes="0;0.4;0.5;0.9;1"/><path clip-path="url(#A)" fill="#929497" d="M54.864 50h0c0-1.291.689-2.412 1.671-2.729 9.624-3.107 17.154-12.911 19.347-25.296.681-3.844-1.698-7.475-4.791-7.475H28.908c-3.093 0-5.472 3.631-4.791 7.475 2.194 12.385 9.723 22.189 19.347 25.296.982.317 1.671 1.438 1.671 2.729h0c0 1.291-.689 2.412-1.671 2.729-9.624 3.107-17.153 12.911-19.347 25.296-.681 3.844 1.698 7.475 4.791 7.475h42.184c3.093 0 5.472-3.631 4.791-7.475-2.194-12.385-9.723-22.189-19.347-25.296-.983-.317-1.672-1.438-1.672-2.729z"/><path fill="#404041" d="M81 81.5h-2.724l.091-.578a10.07 10.07 0 0 0-.022-3.333C76.013 64.42 68.103 54.033 57.703 50.483l-.339-.116v-.715l.339-.135c10.399-3.552 18.31-13.938 20.642-27.107a10.07 10.07 0 0 0 .022-3.333l-.091-.577H81c2.481 0 4.5-2.019 4.5-4.5S83.481 9.5 81 9.5H19c-2.481 0-4.5 2.019-4.5 4.5s2.019 4.5 4.5 4.5h2.724l-.092.578c-.178 1.122-.17 2.243.023 3.333 2.333 13.168 10.242 23.555 20.642 27.107l.338.116v.715l-.338.135c-10.4 3.551-18.31 13.938-20.642 27.106-.193 1.09-.201 2.211-.023 3.333l.092.578H19c-2.481 0-4.5 2.019-4.5 4.5s2.019 4.5 4.5 4.5h62c2.481 0 4.5-2.019 4.5-4.5A4.51 4.51 0 0 0 81 81.5zm-7.86-.309l-.128.309H26.988l-.128-.309c-.244-.588-.491-1.538-.28-2.729 2.014-11.375 8.944-20.542 17.654-23.354 2.035-.658 3.402-2.711 3.402-5.108s-1.368-4.451-3.403-5.108c-8.71-2.812-15.639-11.979-17.653-23.353-.211-1.191.036-2.143.281-2.731l.128-.308h46.024l.128.308c.244.589.492 1.541.281 2.731-2.015 11.375-8.944 20.541-17.654 23.353-2.035.658-3.402 2.71-3.402 5.108s1.368 4.45 3.403 5.108c8.71 2.812 15.64 11.979 17.653 23.354.21 1.189-.038 2.142-.282 2.729z"/></g></g></g></g></svg>