<?xml version="1.0" encoding="iso-8859-1"?>
<!-- Uploaded to: SVG Repo, www.svgrepo.com, Generator: SVG Repo Mixer Tools -->
<!DOCTYPE svg PUBLIC "-//W3C//DTD SVG 1.1//EN" "http://www.w3.org/Graphics/SVG/1.1/DTD/svg11.dtd">
<svg fill="#000000" height="800px" width="800px" version="1.1" id="Capa_1" xmlns="http://www.w3.org/2000/svg" xmlns:xlink="http://www.w3.org/1999/xlink" 
	 viewBox="0 0 490 490" xml:space="preserve">
<g>
	<path d="M232.582,75.479c-93.474,0-169.521,76.049-169.521,169.521c0,93.474,76.047,169.519,169.521,169.519
		c93.473,0,169.519-76.046,169.519-169.519C402.101,151.527,326.055,75.479,232.582,75.479z M364.829,302.657
		c-12.73,5.033-26.869,9.256-42.051,12.604c2.236-18.367,3.585-37.736,3.988-57.643h49.541
		C374.925,273.502,370.957,288.655,364.829,302.657z M88.856,257.618h49.539c0.402,19.902,1.751,39.266,3.986,57.628
		c-15.183-3.348-29.322-7.565-42.047-12.588C94.206,288.656,90.239,273.502,88.856,257.618z M100.336,187.338
		c12.735-5.034,26.876-9.257,42.064-12.605c-2.242,18.391-3.6,37.768-4.004,57.648h-49.54
		C90.239,216.496,94.206,201.342,100.336,187.338z M245.2,165.671c17.799,0.471,35.1,1.936,51.528,4.33
		c2.714,19.603,4.341,40.617,4.797,62.38H245.2V165.671z M245.2,140.428v-39.154c13.385,1.165,26.252,4.165,38.35,8.748
		c3.367,10.412,6.296,21.787,8.762,33.925C277.116,142.021,261.329,140.836,245.2,140.428z M219.964,140.428
		c-16.125,0.407-31.905,1.592-47.097,3.516c2.464-12.141,5.39-23.516,8.751-33.924c12.097-4.582,24.963-7.581,38.346-8.746V140.428z
		 M219.964,165.671l0.001,66.71h-56.327c0.457-21.728,2.092-42.752,4.813-62.384C184.876,167.605,202.169,166.141,219.964,165.671z
		 M163.637,257.618h56.328l0.001,66.711c-17.771-0.473-35.082-1.938-51.535-4.341C165.718,300.389,164.092,279.378,163.637,257.618z
		 M219.966,349.57v39.155c-13.387-1.165-26.254-4.165-38.352-8.749c-3.369-10.415-6.3-21.795-8.767-33.938
		C188.061,347.971,203.854,349.162,219.966,349.57z M245.202,349.571c16.129-0.407,31.914-1.593,47.11-3.519
		c-2.466,12.137-5.396,23.512-8.761,33.924c-12.098,4.584-24.965,7.583-38.35,8.749V349.571z M245.202,324.329l-0.002-66.711h56.325
		c-0.456,21.763-2.081,42.778-4.797,62.382C280.3,322.395,263.001,323.858,245.202,324.329z M326.767,232.381
		c-0.403-19.907-1.752-39.276-3.988-57.644c15.182,3.349,29.319,7.571,42.051,12.604c6.128,14.003,10.096,29.156,11.478,45.039
		H326.767z M344.57,154.136c-8.272-2.254-16.886-4.245-25.778-5.966c-1.368-7.613-2.9-14.988-4.595-22.084
		C325.612,133.945,335.847,143.404,344.57,154.136z M150.977,126.078c-1.692,7.097-3.227,14.472-4.594,22.086
		c-8.896,1.722-17.511,3.714-25.788,5.968C129.323,143.398,139.558,133.939,150.977,126.078z M120.589,335.857
		c8.273,2.251,16.887,4.244,25.778,5.965c1.368,7.615,2.901,14.992,4.596,22.088C139.546,356.05,129.313,346.592,120.589,335.857z
		 M314.199,363.912c1.692-7.094,3.226-14.469,4.593-22.081c8.895-1.722,17.506-3.714,25.778-5.968
		C335.847,346.596,325.614,356.053,314.199,363.912z"/>
	<path d="M489.36,233.99c-1.15-2.516-3.66-4.129-6.428-4.129h-17.951c-3.603-56.469-27.298-109.063-67.67-149.434
		C353.353,36.468,294.906,12.26,232.74,12.26S112.128,36.468,68.169,80.428C24.209,124.387,0,182.833,0,245
		c0,62.166,24.209,120.611,68.169,164.571c43.959,43.96,102.404,68.169,164.571,68.169c52.738,0,104.401-18.133,145.472-51.055
		c5.439-4.359,6.313-12.301,1.953-17.738c-4.357-5.436-12.297-6.312-17.737-1.953c-37.14,29.773-81.986,45.51-129.688,45.51
		c-114.417,0-207.504-93.087-207.504-207.504c0-114.418,93.087-207.504,207.504-207.504c109.327,0,199.169,84.988,206.948,192.365
		h-16.896c-2.764,0-5.277,1.613-6.427,4.129c-1.149,2.515-0.726,5.47,1.084,7.562l30.068,34.746
		c1.342,1.552,3.292,2.442,5.343,2.442c2.053,0,4.001-0.891,5.344-2.441l30.072-34.746
		C490.086,239.461,490.511,236.505,489.36,233.99z"/>
</g>
</svg>