<svg id="Component_21_1" data-name="Component 21 – 1" xmlns="http://www.w3.org/2000/svg" width="50.111" height="46" viewBox="0 0 50.111 46">
  <path id="Path_3811" data-name="Path 3811" d="M312.979,301.766a7.839,7.839,0,0,1,7.83,7.83.979.979,0,1,0,1.957,0,7.839,7.839,0,0,1,7.83-7.83.979.979,0,1,0,0-1.957,7.839,7.839,0,0,1-7.83-7.83.979.979,0,0,0-1.957,0,7.839,7.839,0,0,1-7.83,7.83.979.979,0,0,0,0,1.957Zm8.808-5.523a9.853,9.853,0,0,0,4.544,4.544,9.853,9.853,0,0,0-4.544,4.544,9.852,9.852,0,0,0-4.544-4.544A9.851,9.851,0,0,0,321.787,296.243Z" transform="translate(-281.464 -264.574)" fill="#080087"/>
  <path id="Path_3812" data-name="Path 3812" d="M.979,28.83a4.9,4.9,0,0,1,4.894,4.894.979.979,0,0,0,1.957,0,4.9,4.9,0,0,1,4.894-4.894.979.979,0,1,0,0-1.957A4.9,4.9,0,0,1,7.83,21.979a.979.979,0,0,0-1.957,0A4.9,4.9,0,0,1,.979,26.872a.979.979,0,1,0,0,1.957ZM6.851,25.5A6.907,6.907,0,0,0,9.2,27.851,6.9,6.9,0,0,0,6.851,30.2,6.907,6.907,0,0,0,4.5,27.851,6.907,6.907,0,0,0,6.851,25.5Z" transform="translate(0 -21)" fill="#080087"/>
  <ellipse id="Ellipse_200" data-name="Ellipse 200" cx="1" cy="0.5" rx="1" ry="0.5" transform="translate(26 26)" fill="#080087"/>
  <path id="Path_3813" data-name="Path 3813" d="M62.394,72.551a.979.979,0,0,0,1.341.342,16.618,16.618,0,0,1,8.478-2.319.979.979,0,0,0,0-1.957A16.657,16.657,0,0,1,55.574,51.979a.979.979,0,0,0-1.957,0A16.657,16.657,0,0,1,36.979,68.617a.979.979,0,1,0,0,1.957A16.657,16.657,0,0,1,53.617,87.213a.979.979,0,1,0,1.957,0,16.618,16.618,0,0,1,2.319-8.478.979.979,0,0,0-1.683-1A18.465,18.465,0,0,0,54.6,81.253,18.685,18.685,0,0,0,42.937,69.6,18.685,18.685,0,0,0,54.6,57.937,18.685,18.685,0,0,0,66.253,69.6a18.469,18.469,0,0,0-3.517,1.615.979.979,0,0,0-.342,1.341Z" transform="translate(-32.477 -48.064)" fill="#080087"/>
</svg>
