<?xml version="1.0" encoding="UTF-8"?>
<svg version="1.1" xmlns="http://www.w3.org/2000/svg" width="77" height="73">
<path d="M0 0 C7.32151342 4.28193948 13.02489623 10.52812173 15.22265625 18.81640625 C16.7714555 27.46261568 15.21662659 34.77594851 10.234375 42.109375 C5.80709811 47.56191601 0.56545817 51.52017596 -6.375 53.0625 C-16.16504535 53.98688196 -23.28133006 52.3750738 -31.125 46.4375 C-36.85980414 41.20949251 -40.02554389 33.51806545 -40.625 25.875 C-40.32637161 21.32091704 -39.40844482 17.17123007 -37.375 13.0625 C-36.385 12.4025 -35.395 11.7425 -34.375 11.0625 C-33.715 11.7225 -33.055 12.3825 -32.375 13.0625 C-33.365 15.7025 -34.355 18.3425 -35.375 21.0625 C-34.385 20.7325 -33.395 20.4025 -32.375 20.0625 C-30.98060336 19.99584624 -29.58330125 19.97711801 -28.1875 20 C-26.3003125 20.0309375 -26.3003125 20.0309375 -24.375 20.0625 C-23.385 15.4425 -22.395 10.8225 -21.375 6.0625 C-27.09363052 7.34389327 -27.09363052 7.34389327 -31.375 11.0625 C-32.365 10.7325 -33.355 10.4025 -34.375 10.0625 C-32.97924517 6.75563471 -31.4502907 5.04674674 -28.5625 2.9375 C-27.89605469 2.43992187 -27.22960937 1.94234375 -26.54296875 1.4296875 C-18.71139238 -3.50914444 -8.42159099 -3.78645176 0 0 Z M-18.375 2.0625 C-18.50045299 4.9806826 -18.50045299 4.9806826 -17.76953125 7.3984375 C-17.28349437 10.68038948 -17.91522254 12.59113035 -19.0625 15.6875 C-19.39636719 16.62851562 -19.73023437 17.56953125 -20.07421875 18.5390625 C-21.54430478 21.39094111 -22.56752437 22.53250006 -25.375 24.0625 C-28.171875 24.57421875 -28.171875 24.57421875 -31.125 24.75 C-32.10984375 24.81574219 -33.0946875 24.88148437 -34.109375 24.94921875 C-34.85703125 24.98660156 -35.6046875 25.02398437 -36.375 25.0625 C-36.045 26.3825 -35.715 27.7025 -35.375 29.0625 C-34.71113281 29.08828125 -34.04726563 29.1140625 -33.36328125 29.140625 C-29.16163825 29.41051156 -26.02239508 29.72585456 -22.25 31.6875 C-19.65725968 34.97163774 -19.95056674 36.95964512 -20.375 41.0625 C-20.66685063 43.0689731 -20.98669599 45.07244193 -21.375 47.0625 C-17.95102277 49.16956291 -15.33557533 49.14930713 -11.375 49.0625 C-11.42140625 48.24265625 -11.4678125 47.4228125 -11.515625 46.578125 C-11.56976563 44.96164063 -11.56976563 44.96164063 -11.625 43.3125 C-11.67140625 42.24515625 -11.7178125 41.1778125 -11.765625 40.078125 C-11.375 37.0625 -11.375 37.0625 -9.65625 34.68359375 C-6.98449961 32.785004 -5.85013128 32.65417095 -2.625 32.875 C1.94673981 33.07170691 6.10159312 32.73263435 10.625 32.0625 C10.955 29.0925 11.285 26.1225 11.625 23.0625 C10.8 23.371875 9.975 23.68125 9.125 24 C6.31243545 24.85381424 4.24066516 25.22309804 1.375 25.4375 C-2.42158475 25.61994488 -2.42158475 25.61994488 -3.875 28.125 C-4.04 28.764375 -4.205 29.40375 -4.375 30.0625 C-10.52734375 30.16015625 -10.52734375 30.16015625 -12.375 30.0625 C-13.93450551 28.50299449 -13.65696698 26.97372869 -13.75 24.8125 C-13.72020265 21.0461152 -13.60190311 20.33233072 -11.0625 17.3125 C-9.7321875 16.19875 -9.7321875 16.19875 -8.375 15.0625 C-7.900625 14.216875 -7.42625 13.37125 -6.9375 12.5 C-4.93742569 9.37988407 -2.52091892 7.95005135 0.625 6.0625 C-3.82529503 2.53295567 -6.92380215 1.93936884 -12.5625 2 C-13.64917969 2.00902344 -14.73585938 2.01804687 -15.85546875 2.02734375 C-16.68691406 2.03894531 -17.51835938 2.05054688 -18.375 2.0625 Z M-4.375 14.0625 C-5.81539441 16.34520117 -7.07818587 18.69246038 -8.375 21.0625 C-9.365 21.5575 -9.365 21.5575 -10.375 22.0625 C-10.375 23.7125 -10.375 25.3625 -10.375 27.0625 C-9.055 27.0625 -7.735 27.0625 -6.375 27.0625 C-5.983125 26.423125 -5.59125 25.78375 -5.1875 25.125 C-2.61593819 22.19874001 -0.3570172 22.58854925 3.39453125 22.34375 C6.31987731 21.97487974 8.27911184 20.80299767 10.625 19.0625 C8.71615308 14.52079004 8.71615308 14.52079004 6.625 10.0625 C1.47076905 9.58303666 -0.75632013 10.34859171 -4.375 14.0625 Z M-34.375 33.0625 C-33.09914356 38.04993882 -31.28918193 40.72112518 -27.375 44.0625 C-26.385 44.3925 -25.395 44.7225 -24.375 45.0625 C-24.045 41.7625 -23.715 38.4625 -23.375 35.0625 C-26.46388522 33.00324319 -27.08435927 32.8234626 -30.5625 32.9375 C-31.820625 32.97875 -33.07875 33.02 -34.375 33.0625 Z M-7.375 37.0625 C-7.705 37.3925 -8.035 37.7225 -8.375 38.0625 C-8.28536938 39.75391656 -8.12922324 41.44209602 -7.9375 43.125 C-7.83566406 44.04410156 -7.73382813 44.96320312 -7.62890625 45.91015625 C-7.54511719 46.62042969 -7.46132813 47.33070312 -7.375 48.0625 C-1.07289847 47.46229985 2.77562082 45.10655067 7 40.4375 C8.81322797 38.26701693 8.81322797 38.26701693 8.625 36.0625 C2.01248549 33.81896829 -1.05764412 34.07006827 -7.375 37.0625 Z " fill="#060086" transform="translate(52.375,10.9375)"/>
<path d="M0 0 C2.4375 0.75 2.4375 0.75 4.4375 2.75 C4.39625 3.61625 4.355 4.4825 4.3125 5.375 C4.45765995 9.2943186 5.60541573 11.36109015 7.4140625 14.75390625 C11.67987094 23.07386087 11.27758065 31.44881171 8.9375 40.25 C5.17191858 51.46746887 -2.21787702 58.55375556 -12.60546875 63.77734375 C-21.48956096 67.39431938 -32.05536859 67.10774061 -40.9375 63.75 C-50.90540979 58.98740515 -57.76076883 51.68762004 -61.875 41.5 C-62.5625 38.75 -62.5625 38.75 -62.5625 34.75 C-63.8825 34.09 -65.2025 33.43 -66.5625 32.75 C-66.92325949 27.33860759 -66.92325949 27.33860759 -65.375 24.8125 C-63.5625 23.75 -63.5625 23.75 -61.0625 23.875 C-58.37319137 24.81625802 -57.10518641 25.35026558 -55.5625 27.75 C-55.83481649 30.33700665 -56.51155929 32.59293282 -57.3125 35.0625 C-57.8524845 40.86733334 -54.64404771 46.54433882 -51.20703125 51.08203125 C-44.60951656 57.77357228 -36.01191067 60.74661807 -26.8125 61.125 C-17.45812777 60.92621959 -9.95261615 58.0449797 -3.2109375 51.5234375 C2.74725131 45.1134429 4.89281533 37.83372356 5.8125 29.25 C5.27571689 24.24002433 3.86204245 19.56982497 2.4375 14.75 C2.09630169 13.41865759 1.75977866 12.08604841 1.4375 10.75 C0.674375 10.8325 -0.08875 10.915 -0.875 11 C-3.5625 10.75 -3.5625 10.75 -5.4375 9.0625 C-6.5625 6.75 -6.5625 6.75 -6.4375 4.125 C-5.17144345 0.68856078 -3.65860675 -0.35693724 0 0 Z M-1.5625 3.75 C-1.5625 4.74 -1.5625 5.73 -1.5625 6.75 C-0.9025 6.75 -0.2425 6.75 0.4375 6.75 C0.4375 5.76 0.4375 4.77 0.4375 3.75 C-0.2225 3.75 -0.8825 3.75 -1.5625 3.75 Z M-62.5625 27.75 C-62.5625 28.74 -62.5625 29.73 -62.5625 30.75 C-61.5725 30.42 -60.5825 30.09 -59.5625 29.75 C-59.8925 29.09 -60.2225 28.43 -60.5625 27.75 C-61.2225 27.75 -61.8825 27.75 -62.5625 27.75 Z " fill="#060087" transform="translate(66.5625,7.25)"/>
<path d="M0 0 C2.31 0.66 4.62 1.32 7 2 C7 2.99 7 3.98 7 5 C6.01 5 5.02 5 4 5 C4 4.34 4 3.68 4 3 C2.68 3.33 1.36 3.66 0 4 C0 2.68 0 1.36 0 0 Z " fill="#050087" transform="translate(45,0)"/>
<path d="M0 0 C2.64 0 5.28 0 8 0 C7.67 1.32 7.34 2.64 7 4 C6.401875 3.835 5.80375 3.67 5.1875 3.5 C2.88655664 2.8885876 2.88655664 2.8885876 0 3 C0 2.01 0 1.02 0 0 Z " fill="#050087" transform="translate(35,0)"/>
<path d="M0 0 C0.99 0.33 1.98 0.66 3 1 C2.67 1.99 2.34 2.98 2 4 C0.68 3.67 -0.64 3.34 -2 3 C-1.34 2.01 -0.68 1.02 0 0 Z " fill="#04008B" transform="translate(7,21)"/>
<path d="M0 0 C0.99 0 1.98 0 3 0 C3 1.32 3 2.64 3 4 C1.68 3.67 0.36 3.34 -1 3 C-0.67 2.01 -0.34 1.02 0 0 Z " fill="#040089" transform="translate(11,13)"/>
<path d="M0 0 C0.99 0.99 1.98 1.98 3 3 C2.01 3.66 1.02 4.32 0 5 C-0.66 4.01 -1.32 3.02 -2 2 C-1.34 1.34 -0.68 0.68 0 0 Z " fill="#050087" transform="translate(15,9)"/>
<path d="M0 0 C0.66 0.33 1.32 0.66 2 1 C1.67 2.32 1.34 3.64 1 5 C0.01 4.67 -0.98 4.34 -2 4 C-1.34 2.68 -0.68 1.36 0 0 Z " fill="#040088" transform="translate(19,6)"/>
<path d="M0 0 C1.485 0.99 1.485 0.99 3 2 C3 2.66 3 3.32 3 4 C2.01 4.33 1.02 4.66 0 5 C-0.5625 3.0625 -0.5625 3.0625 -1 1 C-0.67 0.67 -0.34 0.34 0 0 Z " fill="#04008A" transform="translate(31,0)"/>
<path d="M0 0 C0.99 0.33 1.98 0.66 3 1 C2.67 1.99 2.34 2.98 2 4 C1.01 3.67 0.02 3.34 -1 3 C-0.67 2.01 -0.34 1.02 0 0 Z " fill="#050087" transform="translate(5,26)"/>
<path d="M0 0 C0.99 0.33 1.98 0.66 3 1 C2.67 1.99 2.34 2.98 2 4 C1.01 3.67 0.02 3.34 -1 3 C-0.67 2.01 -0.34 1.02 0 0 Z " fill="#050086" transform="translate(9,17)"/>
<path d="M0 0 C0.99 0.33 1.98 0.66 3 1 C2.67 1.99 2.34 2.98 2 4 C1.01 3.67 0.02 3.34 -1 3 C-0.67 2.01 -0.34 1.02 0 0 Z " fill="#050086" transform="translate(58,5)"/>
<path d="M0 0 C0.99 0.33 1.98 0.66 3 1 C2.67 1.99 2.34 2.98 2 4 C1.01 3.67 0.02 3.34 -1 3 C-0.67 2.01 -0.34 1.02 0 0 Z " fill="#050086" transform="translate(22,4)"/>
<path d="M0 0 C0.99 0.33 1.98 0.66 3 1 C2.67 1.99 2.34 2.98 2 4 C1.01 3.67 0.02 3.34 -1 3 C-0.67 2.01 -0.34 1.02 0 0 Z " fill="#050086" transform="translate(54,3)"/>
<path d="M0 0 C0.99 0.33 1.98 0.66 3 1 C2.67 1.99 2.34 2.98 2 4 C1.01 3.67 0.02 3.34 -1 3 C-0.67 2.01 -0.34 1.02 0 0 Z " fill="#050087" transform="translate(26,2)"/>
</svg>
