<?xml version="1.0" encoding="UTF-8"?>
<svg version="1.1" xmlns="http://www.w3.org/2000/svg" width="65" height="71">
<path d="M0 0 C12.54 0 25.08 0 38 0 C39.32 2.64 40.64 5.28 42 8 C44.21961401 9.7052778 44.21961401 9.7052778 46.6875 10.4375 C47.47511719 10.72496094 48.26273438 11.01242187 49.07421875 11.30859375 C49.70972656 11.53675781 50.34523437 11.76492188 51 12 C53.10956132 14.10956132 52.23112319 18.53283122 52.25 21.4375 C52.270625 22.22705078 52.29125 23.01660156 52.3125 23.83007812 C52.328125 26.12109375 52.328125 26.12109375 52 30 C51.01 30.66 50.02 31.32 49 32 C46.94077598 29.94077598 47.58572421 25.78291876 47.4375 22.9375 C47.39431641 22.17888672 47.35113281 21.42027344 47.30664062 20.63867188 C47.20026367 18.75934562 47.09960066 16.87969756 47 15 C46.67 15.33 46.34 15.66 46 16 C46.33 16.33 46.66 16.66 47 17 C48.08529989 32.00635804 44.51700561 42.92654104 35.25 54.6875 C30.918574 59.52445052 25.17668642 63.94110453 19 66 C8.95750388 61.83073266 -0.47392648 52.91742581 -5 43 C-6.50261224 38.70964663 -7.80351682 34.38487692 -9 30 C-9.99 30.66 -10.98 31.32 -12 32 C-13 31 -13 31 -13.11352539 29.14233398 C-13.10828857 28.35157471 -13.10305176 27.56081543 -13.09765625 26.74609375 C-13.09443359 25.89208984 -13.09121094 25.03808594 -13.08789062 24.15820312 C-13.07951172 23.26037109 -13.07113281 22.36253906 -13.0625 21.4375 C-13.05798828 20.53580078 -13.05347656 19.63410156 -13.04882812 18.70507812 C-13.03700225 16.46998686 -13.0205222 14.23502563 -13 12 C-12.31292969 11.72027344 -11.62585937 11.44054688 -10.91796875 11.15234375 C-10.01691406 10.75144531 -9.11585937 10.35054687 -8.1875 9.9375 C-7.29417969 9.55464844 -6.40085937 9.17179688 -5.48046875 8.77734375 C-2.1685718 6.72816322 -2.1685718 6.72816322 0 0 Z M3 3 C2.34 4.98 1.68 6.96 1 9 C1.52779053 8.34950684 2.05558105 7.69901367 2.59936523 7.02880859 C5.70725423 4.40228998 7.3823122 4.50984824 11.41015625 4.5390625 C13.26543945 4.54486328 13.26543945 4.54486328 15.15820312 4.55078125 C16.44662109 4.57527344 17.73503906 4.59976562 19.0625 4.625 C21.00092773 4.62693359 21.00092773 4.62693359 22.97851562 4.62890625 C32.57857143 4.71904762 32.57857143 4.71904762 36 7 C36 5.68 36 4.36 36 3 C25.11 3 14.22 3 3 3 Z M36 7 C36.66 8.32 37.32 9.64 38 11 C38 10.01 38 9.02 38 8 C37.34 7.67 36.68 7.34 36 7 Z M0.45605469 14.08105469 C-1.16865993 16.22227817 -2.53963704 16.99126441 -5 18 C-5.77594165 30.98983808 -2.61696031 42.38400843 5.9921875 52.29296875 C10.91524622 57.46424238 10.91524622 57.46424238 17 61 C24.04128409 60.42856154 28.10633953 56.8317154 33 52 C40.43640923 42.67674066 43.84919298 32.85004554 43.625 20.92578125 C42.8824256 17.44960486 42.02701523 16.49928036 39.1875 14.4375 C38.47980469 14.04433594 37.77210937 13.65117187 37.04296875 13.24609375 C35 12 35 12 33.73071289 9.96411133 C32.13063195 7.7594784 32.13063195 7.7594784 29.38378906 7.41894531 C26.00421655 7.32051116 22.6311177 7.25736627 19.25 7.25 C17.49816406 7.17652344 17.49816406 7.17652344 15.7109375 7.1015625 C8.33408212 7.05137981 4.69355308 7.83914333 0.45605469 14.08105469 Z M-1 10 C-1.33 10.66 -1.66 11.32 -2 12 C-1.34 12 -0.68 12 0 12 C-0.33 11.34 -0.66 10.68 -1 10 Z M39 11 C39.33 11.66 39.66 12.32 40 13 C40.66 12.67 41.32 12.34 42 12 C41.01 11.67 40.02 11.34 39 11 Z M-10 15 C-10 18.63 -10 22.26 -10 26 C-9.67 26 -9.34 26 -9 26 C-8.87882813 25.30132812 -8.75765625 24.60265625 -8.6328125 23.8828125 C-8.46523437 22.97273438 -8.29765625 22.06265625 -8.125 21.125 C-7.96257813 20.22007813 -7.80015625 19.31515625 -7.6328125 18.3828125 C-7 16 -7 16 -5 14 C-7.9254644 13.7763932 -7.9254644 13.7763932 -10 15 Z " fill="#060086" transform="translate(13,0)"/>
<path d="M0 0 C4.30747999 2.47281259 4.30747999 2.47281259 6 5 C6.47828231 7.39141157 6.62613926 9.5745237 6.6015625 12.01171875 C6.79878906 12.99591797 6.79878906 12.99591797 7 14 C8.91378252 15.25907342 8.91378252 15.25907342 11 16 C13.102003 18.102003 12.23109795 22.48298583 12.25 25.375 C12.270625 26.15617187 12.29125 26.93734375 12.3125 27.7421875 C12.35174965 33.47263663 12.35174965 33.47263663 10.84887695 35.72583008 C8.22126502 37.53667211 6.2615014 37.37219378 3.08984375 37.36328125 C1.93548828 37.36263672 0.78113281 37.36199219 -0.40820312 37.36132812 C-1.61412109 37.34521484 -2.82003906 37.32910156 -4.0625 37.3125 C-5.87717773 37.31733398 -5.87717773 37.31733398 -7.72851562 37.32226562 C-16.73310075 37.26689925 -16.73310075 37.26689925 -19 35 C-19.22705078 33.02880859 -19.22705078 33.02880859 -19.1953125 30.6484375 C-19.18886719 29.79765625 -19.18242187 28.946875 -19.17578125 28.0703125 C-19.15902344 27.18085937 -19.14226563 26.29140625 -19.125 25.375 C-19.11597656 24.4778125 -19.10695313 23.580625 -19.09765625 22.65625 C-19.0740497 20.43723414 -19.0411231 18.21874923 -19 16 C-17.35 15.34 -15.7 14.68 -14 14 C-14.144375 12.80375 -14.28875 11.6075 -14.4375 10.375 C-14.4375 7.67094356 -14.25549914 6.36347794 -12.6875 4.1328125 C-8.68749591 0.40066583 -5.57478257 -1.11495651 0 0 Z M-8.8125 5.0625 C-10.55729603 7.90927247 -10.69042148 10.71846765 -11 14 C-6.38 14 -1.76 14 3 14 C3.56468392 8.34568791 3.56468392 8.34568791 1.375 5.625 C-2.06785765 3.26936055 -5.13399818 2.90613687 -8.8125 5.0625 Z M-15 18 C-15 22.95 -15 27.9 -15 33 C-7.41 33 0.18 33 8 33 C8 28.05 8 23.1 8 18 C0.41 18 -7.18 18 -15 18 Z " fill="#060086" transform="translate(36,10)"/>
<path d="M0 0 C0.66 0 1.32 0 2 0 C2.65355469 1.59328125 2.65355469 1.59328125 3.3203125 3.21875 C8.57335056 15.7930333 13.26421182 23.52626226 25 31 C25.99 31.66 26.98 32.32 28 33 C35.85305908 32.56910513 41.66450136 27.31013363 47.0546875 21.9609375 C52.29040058 15.74789131 55.08644585 8.50266875 58 1 C59.32 1 60.64 1 62 1 C59.11081058 15.18329351 51.3409455 26.06986056 39.25 34.125 C35.5145974 36.46242259 32.43816235 37.78618228 28 38 C14.89987336 32.6320487 5.05660528 20.34782955 -0.4375 7.6875 C-1.04992746 4.76145771 -0.83824416 2.85003013 0 0 Z " fill="#060087" transform="translate(2,33)"/>
<path d="M0 0 C2.0625 0.1875 2.0625 0.1875 4 1 C5.25541557 4.76624671 4.37061958 6.37188934 3 10 C1.68 9.67 0.36 9.34 -1 9 C-1.625 5.625 -1.625 5.625 -2 2 C-1.34 1.34 -0.68 0.68 0 0 Z " fill="#060087" transform="translate(31,31)"/>
</svg>
