<?xml version="1.0" encoding="UTF-8"?>
<svg version="1.1" xmlns="http://www.w3.org/2000/svg" width="71" height="70">
<path d="M0 0 C3.3 0 6.6 0 10 0 C10 0.99 10 1.98 10 3 C11.41152344 2.91298828 11.41152344 2.91298828 12.8515625 2.82421875 C14.09679688 2.77910156 15.34203125 2.73398437 16.625 2.6875 C18.46964844 2.60048828 18.46964844 2.60048828 20.3515625 2.51171875 C24.33481699 3.04480955 25.50793443 4.13659478 28.36474609 6.80932617 C31.54020792 9.12146821 35.1804749 9.1372607 39 9.3125 C40.25043091 9.38114258 40.25043091 9.38114258 41.52612305 9.45117188 C49.19003254 9.56278577 53.90960739 7.09319418 60.01953125 2.6875 C63 1 63 1 66.26171875 1.0625 C69 2 69 2 71 5 C71.12109375 8.37109375 71.12109375 8.37109375 70 12 C67.62544961 14.19335674 64.92280758 15.58650408 62.0625 17.0625 C60.48476334 17.91367303 58.90793284 18.76652797 57.33203125 19.62109375 C56.5735791 20.02569824 55.81512695 20.43030273 55.03369141 20.84716797 C52.59457138 22.229824 50.46518382 23.91197851 48.25 25.625 C39.99300547 30.64172817 27.32313718 28.96734628 18.1953125 27.30859375 C15.73382858 26.64687015 13.3703569 25.93259944 11 25 C10.67 25.99 10.34 26.98 10 28 C6.7 28 3.4 28 0 28 C0 18.76 0 9.52 0 0 Z M3 3 C3 10.26 3 17.52 3 25 C4.32 25 5.64 25 7 25 C7 17.74 7 10.48 7 3 C5.68 3 4.36 3 3 3 Z M60.36328125 5.52734375 C59.00280615 6.31330737 57.65275611 7.11753361 56.3125 7.9375 C55.27899414 8.50694336 55.27899414 8.50694336 54.22460938 9.08789062 C52.24888277 10.27099534 50.61293508 11.35388833 49 13 C47.92274601 16.67541417 47.92274601 16.67541417 48 20 C52.29131806 18.41122957 56.26243075 16.35042765 60.25 14.125 C61.20519531 13.61646484 61.20519531 13.61646484 62.1796875 13.09765625 C65.80267172 11.132623 65.80267172 11.132623 67.921875 7.7421875 C67.94765625 7.16726562 67.9734375 6.59234375 68 6 C64.94975346 3.49864101 64.06936975 3.97086619 60.36328125 5.52734375 Z M10 6 C10 10.95 10 15.9 10 21 C17.70108538 23.86552014 24.20504163 25.41902581 32.375 25.5 C33.12313965 25.51804687 33.8712793 25.53609375 34.64208984 25.5546875 C40.16011692 25.49573684 43.41327598 24.0497479 48 21 C44.6717269 19.33586345 41.00266027 20.18132594 37.375 20.4375 C36.57320312 20.48970703 35.77140625 20.54191406 34.9453125 20.59570312 C32.96320897 20.72548371 30.98155501 20.86209735 29 21 C29 20.01 29 19.02 29 18 C34.28 18 39.56 18 45 18 C45.33 16.35 45.66 14.7 46 13 C43.79138204 10.79138204 37.67157875 11.75146475 34.52148438 11.74609375 C30.39895927 11.61022562 27.93455021 11.32899591 24.84765625 8.47265625 C21.45028648 5.52267674 20.02675096 5.44295828 15.625 5.6875 C13.76875 5.790625 11.9125 5.89375 10 6 Z " fill="#070086" transform="translate(0,42)"/>
<path d="M0 0 C1.91635217 -0.05423638 3.83314925 -0.09289963 5.75 -0.125 C7.35101563 -0.15980469 7.35101563 -0.15980469 8.984375 -0.1953125 C11.92470106 -0.00487687 13.52361878 0.47329896 16 2 C16.66 1.34 17.32 0.68 18 0 C21.0390625 -0.1953125 21.0390625 -0.1953125 24.625 -0.125 C26.40777344 -0.09792969 26.40777344 -0.09792969 28.2265625 -0.0703125 C29.14179687 -0.04710937 30.05703125 -0.02390625 31 0 C30.171875 5.7734375 30.171875 5.7734375 28.625 7.8125 C24.97539994 10.47951543 21.33808816 10.08185072 17 10 C17 10.66 17 11.32 17 12 C17.99 11.67 18.98 11.34 20 11 C21.72795352 10.93197033 23.45835365 10.91504355 25.1875 10.9375 C26.08855469 10.94652344 26.98960938 10.95554687 27.91796875 10.96484375 C28.60503906 10.97644531 29.29210937 10.98804688 30 11 C30.96956854 14.05186339 31.1635271 14.66515879 29.6875 17.6875 C28 20 28 20 26 21 C24.45976004 21.06950541 22.91665012 21.08452357 21.375 21.0625 C20.14910156 21.04896484 20.14910156 21.04896484 18.8984375 21.03515625 C18.27195312 21.02355469 17.64546875 21.01195313 17 21 C17 21.66 17 22.32 17 23 C18.3303125 23.309375 18.3303125 23.309375 19.6875 23.625 C23.65165645 25.2704989 26.15060367 27.13523588 28 31 C28.78453273 35.62578262 28.57270841 39.58330026 26.8125 43.9375 C24.13026299 46.98970074 21.97818861 48.73744042 17.8515625 49.28515625 C13.10546172 49.46648568 9.73096425 49.19796935 6 46 C2.62141963 42.07354173 1.33123799 39.04353555 1.61328125 33.95703125 C2.49832607 29.47816808 4.97786024 26.74790714 8.5625 24.125 C11 23 11 23 14 23 C14 22.34 14 21.68 14 21 C13.32453125 21.04640625 12.6490625 21.0928125 11.953125 21.140625 C4.70116861 21.43405676 4.70116861 21.43405676 1.375 19.375 C-0.34529892 16.40357459 -0.30719041 14.37909451 0 11 C1.60407328 10.97291433 3.2082785 10.95356517 4.8125 10.9375 C5.70582031 10.92589844 6.59914063 10.91429687 7.51953125 10.90234375 C10 11 10 11 13 12 C13.33 11.34 13.66 10.68 14 10 C12.1746875 10.0928125 12.1746875 10.0928125 10.3125 10.1875 C6.39621619 10.15972494 3.95702422 9.77781063 1 7 C0.1875 3.3125 0.1875 3.3125 0 0 Z M3 3 C4.60480784 6.12606964 4.60480784 6.12606964 6.9453125 6.51171875 C8.02425781 6.59873047 8.02425781 6.59873047 9.125 6.6875 C10.40375 6.790625 11.6825 6.89375 13 7 C12.34 5.68 11.68 4.36 11 3 C8.36 3 5.72 3 3 3 Z M18.0625 4.4375 C16.90628166 5.82289991 16.90628166 5.82289991 17 7 C18.918125 6.8453125 18.918125 6.8453125 20.875 6.6875 C21.59429687 6.62949219 22.31359375 6.57148437 23.0546875 6.51171875 C25.39519216 6.12606964 25.39519216 6.12606964 27 3 C22.23080276 2.54743166 22.23080276 2.54743166 18.0625 4.4375 Z M3 14 C4.01760473 16.13875077 4.01760473 16.13875077 6 18 C9.62563814 18.33380814 9.62563814 18.33380814 13 18 C11.37719693 15.87501931 11.37719693 15.87501931 9 14 C5.832168 13.66551741 5.832168 13.66551741 3 14 Z M17 17 C17 17.33 17 17.66 17 18 C22.32170494 18.29562367 22.32170494 18.29562367 27 16 C27 15.34 27 14.68 27 14 C22.74357648 13.6351637 20.46444495 14.52539646 17 17 Z M7.2109375 29.37890625 C5.38083733 31.82887906 4.87095993 33.97291121 4.6875 37 C5.26563611 40.7000711 7.3354763 42.45940763 10 45 C12.82001327 46.41000664 14.87007255 46.24548451 18 46 C21.49406769 44.33237678 22.82670681 43.25993978 25 40 C25.45971784 35.03504727 25.15065843 31.93832304 22 28 C16.94594932 24.34017019 11.69186967 25.19433203 7.2109375 29.37890625 Z " fill="#070086" transform="translate(20,0)"/>
<path d="M0 0 C0.99 0 1.98 0 3 0 C3.66 1.65 4.32 3.3 5 5 C3.68 5.33 2.36 5.66 1 6 C2.32 6.33 3.64 6.66 5 7 C5.125 9.375 5.125 9.375 5 12 C4.34 12.66 3.68 13.32 3 14 C1 13.875 1 13.875 -1 13 C-3.06129981 9.90805029 -3.29105959 7.60082775 -2.625 3.9375 C-2 2 -2 2 0 0 Z " fill="#070086" transform="translate(34,29)"/>
<path d="M0 0 C1.32 0 2.64 0 4 0 C4 0.66 4 1.32 4 2 C4.66 2 5.32 2 6 2 C6 3.32 6 4.64 6 6 C5.34 6 4.68 6 4 6 C4 6.66 4 7.32 4 8 C2.68 8 1.36 8 0 8 C0 7.34 0 6.68 0 6 C-0.66 6 -1.32 6 -2 6 C-2 4.68 -2 3.36 -2 2 C-1.34 2 -0.68 2 0 2 C0 1.34 0 0.68 0 0 Z M1 3 C1 3.66 1 4.32 1 5 C1.66 5 2.32 5 3 5 C3 4.34 3 3.68 3 3 C2.34 3 1.68 3 1 3 Z " fill="#060086" transform="translate(2,28)"/>
<path d="M0 0 C0.33 1.32 0.66 2.64 1 4 C0.34 4 -0.32 4 -1 4 C-1 4.99 -1 5.98 -1 7 C-2.32 7 -3.64 7 -5 7 C-5 6.01 -5 5.02 -5 4 C-5.66 4 -6.32 4 -7 4 C-7 2.68 -7 1.36 -7 0 C-4.3333581 -1.33332095 -2.83319697 -0.67102033 0 0 Z M-4 1 C-4 1.66 -4 2.32 -4 3 C-3.34 3 -2.68 3 -2 3 C-2 2.34 -2 1.68 -2 1 C-2.66 1 -3.32 1 -4 1 Z " fill="#050086" transform="translate(7,1)"/>
<path d="M0 0 C0.99 0 1.98 0 3 0 C3 0.66 3 1.32 3 2 C3.99 2 4.98 2 6 2 C6 3.32 6 4.64 6 6 C5.01 6 4.02 6 3 6 C3 6.66 3 7.32 3 8 C2.01 8 1.02 8 0 8 C0 7.34 0 6.68 0 6 C-0.66 6 -1.32 6 -2 6 C-2 4.68 -2 3.36 -2 2 C-1.34 2 -0.68 2 0 2 C0 1.34 0 0.68 0 0 Z M1 3 C2 5 2 5 2 5 Z " fill="#060087" transform="translate(65,28)"/>
<path d="M0 0 C0 1.32 0 2.64 0 4 C-0.99 4 -1.98 4 -3 4 C-3 4.99 -3 5.98 -3 7 C-3.99 7 -4.98 7 -6 7 C-6 6.01 -6 5.02 -6 4 C-6.66 4 -7.32 4 -8 4 C-8 2.68 -8 1.36 -8 0 C-5.13822943 -1.43088528 -3.06624227 -0.59991697 0 0 Z M-5 1 C-4 3 -4 3 -4 3 Z " fill="#060086" transform="translate(71,1)"/>
<path d="M0 0 C0.99 0 1.98 0 3 0 C3 0.66 3 1.32 3 2 C3.99 2 4.98 2 6 2 C6 2.66 6 3.32 6 4 C5.01 4 4.02 4 3 4 C3 5.32 3 6.64 3 8 C2.01 8 1.02 8 0 8 C0 6.68 0 5.36 0 4 C-0.66 4 -1.32 4 -2 4 C-2 3.34 -2 2.68 -2 2 C-1.34 2 -0.68 2 0 2 C0 1.34 0 0.68 0 0 Z " fill="#060086" transform="translate(58,14)"/>
<path d="M0 0 C0.66 0 1.32 0 2 0 C2 0.66 2 1.32 2 2 C2.99 2 3.98 2 5 2 C5 2.66 5 3.32 5 4 C4.01 4 3.02 4 2 4 C2 5.32 2 6.64 2 8 C1.34 8 0.68 8 0 8 C0 6.68 0 5.36 0 4 C-0.99 4 -1.98 4 -3 4 C-3 3.34 -3 2.68 -3 2 C-2.01 2 -1.02 2 0 2 C0 1.34 0 0.68 0 0 Z " fill="#060087" transform="translate(10,14)"/>
</svg>
