<svg width="17" height="17" viewBox="0 0 17 17" fill="none" xmlns="http://www.w3.org/2000/svg">
<path fill-rule="evenodd" clip-rule="evenodd" d="M14.0939 2.8658C12.7497 1.52163 10.4814 1.62381 9.5455 3.30086L9.02624 4.23128C8.41505 5.32644 8.6755 6.70822 9.57023 7.61388C9.58214 7.6302 9.6453 7.72216 9.65316 7.88282C9.6632 8.0879 9.59037 8.56216 8.85556 9.29697C8.121 10.0315 7.64679 10.1045 7.44163 10.0946C7.28084 10.0867 7.18881 10.0236 7.17246 10.0116C6.2668 9.11691 4.88503 8.85646 3.78988 9.46764L2.85945 9.9869C1.18241 10.9228 1.08022 13.1911 2.42439 14.5353C3.14339 15.2543 4.0994 15.8932 5.22286 15.9358C6.88775 15.9989 9.65218 15.5689 12.3898 12.8313C15.1275 10.0936 15.5575 7.32916 15.4943 5.66427C15.4518 4.54081 14.8129 3.58479 14.0939 2.8658ZM10.5934 3.88571C11.0727 3.02696 12.3606 2.82966 13.2453 3.71441C13.8656 4.33474 14.2689 5.01945 14.2951 5.70973C14.3477 7.09813 14.005 9.51894 11.5412 11.9827C9.07754 14.4464 6.65672 14.7891 5.26832 14.7365C4.57804 14.7103 3.89333 14.3071 3.273 13.6867C2.38826 12.802 2.58555 11.5141 3.4443 11.0349L4.37472 10.5156C4.9535 10.1926 5.76647 10.3028 6.33717 10.8735L6.33735 10.8736C6.39341 10.9297 6.75009 11.2625 7.38333 11.2933C8.03156 11.3248 8.81621 11.0335 9.70416 10.1456C10.5924 9.25733 10.8836 8.47246 10.8518 7.82413C10.8208 7.19087 10.4878 6.83435 10.4321 6.77863L10.4321 6.7786C9.86137 6.2079 9.75118 5.39491 10.0742 4.81613L10.5934 3.88571Z" fill="#00539c"/>
</svg>
