<svg width="17" height="17" viewBox="0 0 17 17" fill="none" xmlns="http://www.w3.org/2000/svg">
<path d="M4.21939 5.96263C3.99744 5.81079 3.69328 5.86597 3.54003 6.08587C3.38677 6.30578 3.44246 6.60714 3.66442 6.75898L7.23062 9.19867C8.08977 9.78642 9.231 9.76796 10.0703 9.15274L13.3486 6.7498C13.5655 6.59087 13.6112 6.28787 13.4508 6.07303C13.2904 5.8582 12.9846 5.81288 12.7677 5.97181L9.48938 8.37474C8.98583 8.7439 8.30107 8.75493 7.78561 8.40229L4.21939 5.96263Z" fill="#00539c"/>
<path fill-rule="evenodd" clip-rule="evenodd" d="M3.94186 3.94141C2.59326 3.94141 1.5 5.02459 1.5 6.36076V11.5221C1.5 12.8582 2.59326 13.9414 3.94186 13.9414H13.0581C14.4068 13.9414 15.5 12.8582 15.5 11.5221V6.36076C15.5 5.02459 14.4068 3.94141 13.0581 3.94141H3.94186ZM2.47674 6.36076C2.47674 5.55906 3.1327 4.90915 3.94186 4.90915H13.0581C13.8673 4.90915 14.5233 5.55906 14.5233 6.36076V11.5221C14.5233 12.3237 13.8673 12.9737 13.0581 12.9737H3.94186C3.1327 12.9737 2.47674 12.3237 2.47674 11.5221V6.36076Z" fill="#00539c"/>
</svg>
