<svg width="24" height="25" viewBox="0 0 24 25" fill="none" xmlns="http://www.w3.org/2000/svg">
<g clip-path="url(#clip0_4910_4296)">
<path d="M22 12.9414C22 7.41855 17.5229 2.94141 12 2.94141C6.47715 2.94141 2 7.41855 2 12.9414C2 17.9326 5.65684 22.0697 10.4375 22.8199V15.832H7.89844V12.9414H10.4375V10.7383C10.4375 8.23203 11.9305 6.84766 14.2146 6.84766C15.3084 6.84766 16.4531 7.04297 16.4531 7.04297V9.50391H15.1922C13.95 9.50391 13.5625 10.2748 13.5625 11.0664V12.9414H16.3359L15.8926 15.832H13.5625V22.8199C18.3432 22.0697 22 17.9326 22 12.9414Z" fill="#00539c"/>
</g>
<defs>
<clipPath id="clip0_4910_4296">
<rect width="20" height="20" fill="#00539c" transform="translate(2 2.94141)"/>
</clipPath>
</defs>
</svg>
