<svg width="25" height="25" viewBox="0 0 25 25" fill="none" xmlns="http://www.w3.org/2000/svg">
<g clip-path="url(#clip0_4910_4302)">
<path d="M12.6665 4.74219C15.3384 4.74219 15.6548 4.75391 16.7056 4.80078C17.6821 4.84375 18.2095 5.00781 18.561 5.14453C19.0259 5.32422 19.3618 5.54297 19.7095 5.89062C20.061 6.24219 20.2759 6.57422 20.4556 7.03906C20.5923 7.39062 20.7563 7.92187 20.7993 8.89453C20.8462 9.94922 20.8579 10.2656 20.8579 12.9336C20.8579 15.6055 20.8462 15.9219 20.7993 16.9727C20.7563 17.9492 20.5923 18.4766 20.4556 18.8281C20.2759 19.293 20.0571 19.6289 19.7095 19.9766C19.3579 20.3281 19.0259 20.543 18.561 20.7227C18.2095 20.8594 17.6782 21.0234 16.7056 21.0664C15.6509 21.1133 15.3345 21.125 12.6665 21.125C9.99463 21.125 9.67822 21.1133 8.62744 21.0664C7.65088 21.0234 7.12354 20.8594 6.77197 20.7227C6.30713 20.543 5.97119 20.3242 5.62353 19.9766C5.27197 19.625 5.05713 19.293 4.87744 18.8281C4.74072 18.4766 4.57666 17.9453 4.53369 16.9727C4.48682 15.918 4.4751 15.6016 4.4751 12.9336C4.4751 10.2617 4.48682 9.94531 4.53369 8.89453C4.57666 7.91797 4.74072 7.39062 4.87744 7.03906C5.05713 6.57422 5.27588 6.23828 5.62353 5.89062C5.9751 5.53906 6.30713 5.32422 6.77197 5.14453C7.12354 5.00781 7.65479 4.84375 8.62744 4.80078C9.67822 4.75391 9.99463 4.74219 12.6665 4.74219ZM12.6665 2.94141C9.95166 2.94141 9.61182 2.95312 8.54541 3C7.48291 3.04687 6.75244 3.21875 6.11963 3.46484C5.45947 3.72266 4.90088 4.0625 4.34619 4.62109C3.7876 5.17578 3.44775 5.73438 3.18994 6.39062C2.94385 7.02734 2.77197 7.75391 2.7251 8.81641C2.67822 9.88672 2.6665 10.2266 2.6665 12.9414C2.6665 15.6562 2.67822 15.9961 2.7251 17.0625C2.77197 18.125 2.94385 18.8555 3.18994 19.4883C3.44775 20.1484 3.7876 20.707 4.34619 21.2617C4.90088 21.8164 5.45947 22.1602 6.11572 22.4141C6.75244 22.6602 7.479 22.832 8.5415 22.8789C9.60791 22.9258 9.94775 22.9375 12.6626 22.9375C15.3774 22.9375 15.7173 22.9258 16.7837 22.8789C17.8462 22.832 18.5767 22.6602 19.2095 22.4141C19.8657 22.1602 20.4243 21.8164 20.979 21.2617C21.5337 20.707 21.8774 20.1484 22.1313 19.4922C22.3774 18.8555 22.5493 18.1289 22.5962 17.0664C22.6431 16 22.6548 15.6602 22.6548 12.9453C22.6548 10.2305 22.6431 9.89062 22.5962 8.82422C22.5493 7.76172 22.3774 7.03125 22.1313 6.39844C21.8853 5.73437 21.5454 5.17578 20.9868 4.62109C20.4321 4.06641 19.8735 3.72266 19.2173 3.46875C18.5806 3.22266 17.854 3.05078 16.7915 3.00391C15.7212 2.95313 15.3813 2.94141 12.6665 2.94141Z" fill="#00539c"/>
<path d="M12.6665 7.80469C9.83057 7.80469 7.52979 10.1055 7.52979 12.9414C7.52979 15.7773 9.83057 18.0781 12.6665 18.0781C15.5024 18.0781 17.8032 15.7773 17.8032 12.9414C17.8032 10.1055 15.5024 7.80469 12.6665 7.80469ZM12.6665 16.2734C10.8267 16.2734 9.33447 14.7812 9.33447 12.9414C9.33447 11.1016 10.8267 9.60937 12.6665 9.60937C14.5063 9.60937 15.9985 11.1016 15.9985 12.9414C15.9985 14.7812 14.5063 16.2734 12.6665 16.2734Z" fill="#00539c"/>
<path d="M19.2056 7.60156C19.2056 8.26563 18.6665 8.80078 18.0063 8.80078C17.3423 8.80078 16.8071 8.26172 16.8071 7.60156C16.8071 6.9375 17.3462 6.40234 18.0063 6.40234C18.6665 6.40234 19.2056 6.94141 19.2056 7.60156Z" fill="#00539c"/>
</g>
<defs>
<clipPath id="clip0_4910_4302">
<rect width="20" height="20" fill="#00539c" transform="translate(2.6665 2.94141)"/>
</clipPath>
</defs>
</svg>
