<svg width="25" height="25" viewBox="0 0 25 25" fill="none" xmlns="http://www.w3.org/2000/svg">
<g clip-path="url(#clip0_4910_4299)">
<path d="M8.6231 21.067C16.1703 21.067 20.2983 14.8142 20.2983 9.39176C20.2983 9.21416 20.2983 9.03736 20.2863 8.86136C21.0894 8.28049 21.7826 7.56126 22.3335 6.73736C21.5847 7.06936 20.7902 7.28699 19.9767 7.38296C20.8333 6.8702 21.4745 6.06361 21.7807 5.11336C20.9752 5.59137 20.094 5.92821 19.1751 6.10936C18.5564 5.45151 17.7382 5.01589 16.847 4.86993C15.9558 4.72396 15.0413 4.87579 14.2451 5.3019C13.4489 5.72802 12.8153 6.40467 12.4424 7.22715C12.0695 8.04963 11.9781 8.97208 12.1823 9.85176C10.5509 9.76992 8.95496 9.34595 7.49804 8.60736C6.04112 7.86877 4.7558 6.83208 3.7255 5.56456C3.20077 6.46789 3.04006 7.53725 3.27608 8.55491C3.5121 9.57257 4.12711 10.462 4.9959 11.0422C4.34286 11.023 3.70404 10.8469 3.1335 10.5286V10.5806C3.13376 11.5279 3.46171 12.4461 4.06172 13.1792C4.66174 13.9123 5.49688 14.4154 6.4255 14.603C5.8214 14.7677 5.18756 14.7918 4.5727 14.6734C4.83501 15.4886 5.34552 16.2016 6.03286 16.7125C6.7202 17.2234 7.55002 17.5068 8.4063 17.523C7.55553 18.1917 6.58126 18.6861 5.53922 18.978C4.49719 19.2698 3.40784 19.3533 2.3335 19.2238C4.21002 20.4279 6.39343 21.0667 8.6231 21.0638" fill="#00539c"/>
</g>
<defs>
<clipPath id="clip0_4910_4299">
<rect width="20" height="20" fill="#00539c" transform="translate(2.3335 2.94141)"/>
</clipPath>
</defs>
</svg>
