<svg width="24" height="25" viewBox="0 0 24 25" fill="none" xmlns="http://www.w3.org/2000/svg">
<path d="M21.8008 8.94141C21.8008 8.94141 21.6055 7.5625 21.0039 6.95703C20.2422 6.16016 19.3906 6.15625 19 6.10937C16.2031 5.90625 12.0039 5.90625 12.0039 5.90625H11.9961C11.9961 5.90625 7.79688 5.90625 5 6.10937C4.60938 6.15625 3.75781 6.16016 2.99609 6.95703C2.39453 7.5625 2.20312 8.94141 2.20312 8.94141C2.20312 8.94141 2 10.5625 2 12.1797V13.6953C2 15.3125 2.19922 16.9336 2.19922 16.9336C2.19922 16.9336 2.39453 18.3125 2.99219 18.918C3.75391 19.7148 4.75391 19.6875 5.19922 19.7734C6.80078 19.9258 12 19.9727 12 19.9727C12 19.9727 16.2031 19.9648 19 19.7656C19.3906 19.7188 20.2422 19.7148 21.0039 18.918C21.6055 18.3125 21.8008 16.9336 21.8008 16.9336C21.8008 16.9336 22 15.3164 22 13.6953V12.1797C22 10.5625 21.8008 8.94141 21.8008 8.94141ZM9.93359 15.5352V9.91406L15.3359 12.7344L9.93359 15.5352Z" fill="#00539c"/>
</svg>
